# xmcd
#
# Track frame offsets:
#	150
#	17101
#	32290
#	53729
#	67715
#	78235
#	103860
#	126588
#	140085
#	173812
#	200746
#	227071
#
# Disc length: 3243 seconds
#
# Revision: 1
# Processed by: cddbd v1.5.2PL0 Copyright (c) Steve Scherf et al.
# Submitted via: CDmax 2.0
#
DISCID=a00ca90c
DTITLE=Wood, Wire And Words - Riding The Rails
DYEAR=2008
DGENRE=Bluegrass
TTITLE0=The Sawmill
TTITLE1=I'll Be Walking Tall
TTITLE2=Dustbowl Lament
TTITLE3=Born To Be An Outlaw
TTITLE4=I'm Going Home
TTITLE5=Billy Thomas
TTITLE6=The Oregon Trail
TTITLE7=When I'm Gone
TTITLE8=Riding The Rails
TTITLE9=At Night We Pray
TTITLE10=The Outlaw
TTITLE11=Moonshine
EXTD=David Rozzell - Guitar, Vocals, Rhythm Mandolin. Clare Rozzell - Doubl
EXTD=e Bass and Vocals. Pat Francis - Dobro and Mandolin. All Songs Written B
EXTD=y David Rozzell.
EXTT0=Written by David Rozzell
EXTT1=Written by David Rozzell
EXTT2=Written by David Rozzell
EXTT3=Written by David Rozzell
EXTT4=Written by David Rozzell
EXTT5=Written by David Rozzell
EXTT6=Written by David Rozzell
EXTT7=Written by David Rozzell
EXTT8=Written by David Rozzell
EXTT9=Written by David Rozzell
EXTT10=Written by David Rozzell
EXTT11=Written by David Rozzell
PLAYORDER=
